<mxfile host="65bd71144e">
    <diagram id="XEMjHVpvEy7v17SYHmw1" name="Page-1">
        <mxGraphModel dx="2005" dy="973" grid="1" gridSize="10" guides="0" tooltips="1" connect="1" arrows="1" fold="1" page="0" pageScale="1" pageWidth="827" pageHeight="1169" math="0" shadow="0">
            <root>
                <mxCell id="0"/>
                <mxCell id="1" parent="0"/>
                <mxCell id="2" value="&lt;span style=&quot;font-size: 32px&quot;&gt;&lt;b&gt;1&lt;/b&gt;&lt;/span&gt;" style="rounded=0;whiteSpace=wrap;html=1;" parent="1" vertex="1">
                    <mxGeometry x="700" y="280" width="60" height="60" as="geometry"/>
                </mxCell>
                <mxCell id="3" value="&lt;b&gt;&lt;font style=&quot;font-size: 32px&quot;&gt;2&lt;/font&gt;&lt;/b&gt;" style="rounded=0;whiteSpace=wrap;html=1;" parent="1" vertex="1">
                    <mxGeometry x="600" y="280" width="60" height="60" as="geometry"/>
                </mxCell>
                <mxCell id="4" value="20" style="whiteSpace=wrap;html=1;aspect=fixed;fontSize=32;" vertex="1" parent="1">
                    <mxGeometry x="-110" y="30" width="80" height="80" as="geometry"/>
                </mxCell>
                <mxCell id="5" value="10" style="whiteSpace=wrap;html=1;aspect=fixed;fontSize=32;" vertex="1" parent="1">
                    <mxGeometry y="30" width="80" height="80" as="geometry"/>
                </mxCell>
                <mxCell id="6" value="90" style="whiteSpace=wrap;html=1;aspect=fixed;fontSize=32;" vertex="1" parent="1">
                    <mxGeometry x="510" y="30" width="80" height="80" as="geometry"/>
                </mxCell>
                <mxCell id="7" value="100" style="whiteSpace=wrap;html=1;aspect=fixed;fontSize=32;" vertex="1" parent="1">
                    <mxGeometry x="730" y="30" width="80" height="80" as="geometry"/>
                </mxCell>
                <mxCell id="8" value="30" style="whiteSpace=wrap;html=1;aspect=fixed;fontSize=32;" vertex="1" parent="1">
                    <mxGeometry x="100" y="30" width="80" height="80" as="geometry"/>
                </mxCell>
                <mxCell id="9" value="40" style="whiteSpace=wrap;html=1;aspect=fixed;fontSize=32;" vertex="1" parent="1">
                    <mxGeometry x="200" y="30" width="80" height="80" as="geometry"/>
                </mxCell>
                <mxCell id="10" value="50" style="whiteSpace=wrap;html=1;aspect=fixed;fontSize=32;" vertex="1" parent="1">
                    <mxGeometry x="410" y="30" width="80" height="80" as="geometry"/>
                </mxCell>
                <mxCell id="11" value="60" style="whiteSpace=wrap;html=1;aspect=fixed;fontSize=32;" vertex="1" parent="1">
                    <mxGeometry x="310" y="30" width="80" height="80" as="geometry"/>
                </mxCell>
                <mxCell id="12" value="70" style="whiteSpace=wrap;html=1;aspect=fixed;fontSize=32;" vertex="1" parent="1">
                    <mxGeometry x="620" y="30" width="80" height="80" as="geometry"/>
                </mxCell>
                <mxCell id="13" value="80" style="whiteSpace=wrap;html=1;aspect=fixed;fontSize=32;" vertex="1" parent="1">
                    <mxGeometry x="840" y="30" width="80" height="80" as="geometry"/>
                </mxCell>
                <mxCell id="14" value="&lt;h1 style=&quot;font-size: 12px&quot;&gt;&lt;div style=&quot;background-color: rgb(30 , 30 , 30) ; font-family: &amp;#34;droid sans mono&amp;#34; , &amp;#34;monospace&amp;#34; , monospace ; font-weight: normal ; font-size: 14px ; line-height: 19px&quot;&gt;&lt;div&gt;&lt;span style=&quot;color: rgb(197 , 134 , 192)&quot;&gt;&lt;br&gt;&lt;br&gt;for&lt;/span&gt;&lt;font color=&quot;#d4d4d4&quot;&gt; (&lt;/font&gt;&lt;span style=&quot;color: rgb(86 , 156 , 214)&quot;&gt;let&lt;/span&gt; &lt;span style=&quot;color: rgb(156 , 220 , 254)&quot;&gt;current&lt;/span&gt;&lt;font color=&quot;#d4d4d4&quot;&gt; = &lt;/font&gt;&lt;font color=&quot;#b5cea8&quot;&gt;1&lt;/font&gt;&lt;font color=&quot;#d4d4d4&quot;&gt;; &lt;/font&gt;&lt;span style=&quot;color: rgb(156 , 220 , 254)&quot;&gt;current&lt;/span&gt;&lt;font color=&quot;#d4d4d4&quot;&gt; &amp;lt; &lt;/font&gt;&lt;span style=&quot;color: rgb(156 , 220 , 254)&quot;&gt;arr&lt;/span&gt;&lt;font color=&quot;#d4d4d4&quot;&gt;.&lt;/font&gt;&lt;span style=&quot;color: rgb(156 , 220 , 254)&quot;&gt;length&lt;/span&gt;&lt;font color=&quot;#d4d4d4&quot;&gt;; &lt;/font&gt;&lt;span style=&quot;color: rgb(156 , 220 , 254)&quot;&gt;current&lt;/span&gt;&lt;font color=&quot;#d4d4d4&quot;&gt;++) {&lt;/font&gt;&lt;/div&gt;&lt;div style=&quot;color: rgb(212 , 212 , 212)&quot;&gt;    &lt;/div&gt;&lt;div style=&quot;color: rgb(212 , 212 , 212)&quot;&gt;    &lt;span style=&quot;color: #569cd6&quot;&gt;&lt;span style=&quot;white-space: pre&quot;&gt;&#9;&lt;/span&gt;let&lt;/span&gt; &lt;span style=&quot;color: #9cdcfe&quot;&gt;analysis&lt;/span&gt; = &lt;span style=&quot;color: #9cdcfe&quot;&gt;current&lt;/span&gt;;&lt;/div&gt;&lt;div style=&quot;color: rgb(212 , 212 , 212)&quot;&gt;    &lt;/div&gt;&lt;div style=&quot;color: rgb(212 , 212 , 212)&quot;&gt;&lt;span style=&quot;color: #c586c0&quot;&gt;&lt;br&gt;&lt;/span&gt;&lt;/div&gt;&lt;div style=&quot;color: rgb(212 , 212 , 212)&quot;&gt;    &lt;span style=&quot;color: #c586c0&quot;&gt;&lt;span style=&quot;white-space: pre&quot;&gt;&#9;&lt;/span&gt;while&lt;/span&gt;(&lt;span style=&quot;color: #9cdcfe&quot;&gt;analysis&lt;/span&gt; &amp;gt; &lt;span style=&quot;color: #b5cea8&quot;&gt;0&lt;/span&gt; &amp;amp;&amp;amp; &lt;span style=&quot;color: #9cdcfe&quot;&gt;arr&lt;/span&gt;[&lt;span style=&quot;color: #9cdcfe&quot;&gt;analysis&lt;/span&gt;] &amp;lt; &lt;span style=&quot;color: #9cdcfe&quot;&gt;arr&lt;/span&gt;[&lt;span style=&quot;color: #9cdcfe&quot;&gt;analysis&lt;/span&gt; - &lt;span style=&quot;color: #b5cea8&quot;&gt;1&lt;/span&gt;]) {&amp;nbsp;&lt;/div&gt;&lt;div style=&quot;color: rgb(212 , 212 , 212)&quot;&gt;      &lt;span style=&quot;color: #569cd6&quot;&gt;&lt;span style=&quot;white-space: pre&quot;&gt;&#9;&lt;/span&gt;&lt;span style=&quot;white-space: pre&quot;&gt;&#9;&lt;/span&gt;let&lt;/span&gt; &lt;span style=&quot;color: #9cdcfe&quot;&gt;tmp&lt;/span&gt; = &lt;span style=&quot;color: #9cdcfe&quot;&gt;arr&lt;/span&gt;[&lt;span style=&quot;color: #9cdcfe&quot;&gt;analysis&lt;/span&gt; - &lt;span style=&quot;color: #b5cea8&quot;&gt;1&lt;/span&gt;]&lt;/div&gt;&lt;div style=&quot;color: rgb(212 , 212 , 212)&quot;&gt;      &lt;/div&gt;&lt;div style=&quot;color: rgb(212 , 212 , 212)&quot;&gt;      &lt;span style=&quot;color: #9cdcfe&quot;&gt;&lt;span style=&quot;white-space: pre&quot;&gt;&#9;&lt;/span&gt;&lt;span style=&quot;white-space: pre&quot;&gt;&#9;&lt;/span&gt;&lt;br&gt;&lt;span style=&quot;white-space: pre&quot;&gt;&#9;&lt;/span&gt;&lt;span style=&quot;white-space: pre&quot;&gt;&#9;&lt;/span&gt;arr&lt;/span&gt;[&lt;span style=&quot;color: #9cdcfe&quot;&gt;analysis&lt;/span&gt; - &lt;span style=&quot;color: #b5cea8&quot;&gt;1&lt;/span&gt;] = &lt;span style=&quot;color: #9cdcfe&quot;&gt;arr&lt;/span&gt;[&lt;span style=&quot;color: #9cdcfe&quot;&gt;analysis&lt;/span&gt;]&lt;/div&gt;&lt;div style=&quot;color: rgb(212 , 212 , 212)&quot;&gt;      &lt;span style=&quot;color: #9cdcfe&quot;&gt;&lt;span style=&quot;white-space: pre&quot;&gt;&#9;&lt;/span&gt;&lt;span style=&quot;white-space: pre&quot;&gt;&#9;&lt;/span&gt;arr&lt;/span&gt;[&lt;span style=&quot;color: #9cdcfe&quot;&gt;analysis&lt;/span&gt;] = &lt;span style=&quot;color: #9cdcfe&quot;&gt;tmp&lt;/span&gt;&lt;/div&gt;&lt;div style=&quot;color: rgb(212 , 212 , 212)&quot;&gt;      &lt;/div&gt;&lt;div style=&quot;color: rgb(212 , 212 , 212)&quot;&gt;      &lt;span style=&quot;color: #9cdcfe&quot;&gt;&lt;span style=&quot;white-space: pre&quot;&gt;&#9;&lt;/span&gt;&lt;span style=&quot;white-space: pre&quot;&gt;&#9;&lt;/span&gt;analysis&lt;/span&gt;--;    &lt;/div&gt;&lt;div style=&quot;color: rgb(212 , 212 , 212)&quot;&gt;    &lt;span style=&quot;white-space: pre&quot;&gt;&#9;&lt;/span&gt;}&lt;/div&gt;&lt;div style=&quot;color: rgb(212 , 212 , 212)&quot;&gt;    &lt;/div&gt;&lt;div style=&quot;color: rgb(212 , 212 , 212)&quot;&gt;  }&lt;br&gt;&lt;br&gt;&lt;br&gt;&lt;/div&gt;&lt;/div&gt;&lt;/h1&gt;" style="text;html=1;strokeColor=none;fillColor=none;spacing=5;spacingTop=-20;whiteSpace=wrap;overflow=hidden;rounded=0;fontSize=32;" vertex="1" parent="1">
                    <mxGeometry x="-120" y="170" width="580" height="270" as="geometry"/>
                </mxCell>
                <mxCell id="16" value="analysis - 1" style="text;html=1;strokeColor=none;fillColor=none;align=center;verticalAlign=middle;whiteSpace=wrap;rounded=0;fontSize=12;" vertex="1" parent="1">
                    <mxGeometry x="690" y="240" width="80" height="30" as="geometry"/>
                </mxCell>
                <mxCell id="17" value="analysis" style="text;html=1;strokeColor=none;fillColor=none;align=center;verticalAlign=middle;whiteSpace=wrap;rounded=0;fontSize=12;" vertex="1" parent="1">
                    <mxGeometry x="600" y="240" width="60" height="30" as="geometry"/>
                </mxCell>
                <mxCell id="20" value="" style="group;allowArrows=0;editable=0;" vertex="1" connectable="0" parent="1">
                    <mxGeometry x="110" y="-110" width="60" height="68" as="geometry"/>
                </mxCell>
                <mxCell id="19" value="" style="shape=flexArrow;endArrow=classic;html=1;fontSize=12;editable=0;" edge="1" parent="20">
                    <mxGeometry width="50" height="50" relative="1" as="geometry">
                        <mxPoint x="31" y="29" as="sourcePoint"/>
                        <mxPoint x="31" y="68" as="targetPoint"/>
                    </mxGeometry>
                </mxCell>
                <mxCell id="15" value="analysis" style="text;html=1;strokeColor=none;fillColor=none;align=center;verticalAlign=middle;whiteSpace=wrap;rounded=0;fontSize=12;editable=0;" vertex="1" parent="20">
                    <mxGeometry x="-1" y="-3" width="60" height="30" as="geometry"/>
                </mxCell>
                <mxCell id="26" value="" style="group;allowArrows=0;editable=0;" vertex="1" connectable="0" parent="1">
                    <mxGeometry y="-120" width="80" height="75" as="geometry"/>
                </mxCell>
                <mxCell id="18" value="analysis - 1" style="text;html=1;strokeColor=none;fillColor=none;align=center;verticalAlign=middle;whiteSpace=wrap;rounded=0;fontSize=12;allowArrows=0;connectable=0;editable=0;" vertex="1" parent="26">
                    <mxGeometry width="80" height="30" as="geometry"/>
                </mxCell>
                <mxCell id="23" value="" style="shape=flexArrow;endArrow=classic;html=1;fontSize=12;editable=0;" edge="1" parent="26">
                    <mxGeometry width="50" height="50" relative="1" as="geometry">
                        <mxPoint x="36" y="33" as="sourcePoint"/>
                        <mxPoint x="36" y="75" as="targetPoint"/>
                    </mxGeometry>
                </mxCell>
                <mxCell id="31" value="" style="whiteSpace=wrap;html=1;aspect=fixed;rounded=0;fontFamily=Helvetica;fontSize=12;fontColor=default;fillColor=none;gradientColor=none;dashed=1;" vertex="1" parent="1">
                    <mxGeometry x="-221" y="33" width="80" height="80" as="geometry"/>
                </mxCell>
                <mxCell id="32" value="" style="whiteSpace=wrap;html=1;aspect=fixed;rounded=0;fontFamily=Helvetica;fontSize=12;fontColor=default;fillColor=none;gradientColor=none;dashed=1;" vertex="1" parent="1">
                    <mxGeometry x="951" y="30" width="80" height="80" as="geometry"/>
                </mxCell>
                <mxCell id="33" value="index=0" style="text;html=1;strokeColor=none;fillColor=none;align=center;verticalAlign=middle;whiteSpace=wrap;rounded=0;dashed=1;fontFamily=Helvetica;fontSize=12;fontColor=default;" vertex="1" parent="1">
                    <mxGeometry x="-93" y="-15" width="60" height="30" as="geometry"/>
                </mxCell>
                <mxCell id="35" value="index=1" style="text;html=1;strokeColor=none;fillColor=none;align=center;verticalAlign=middle;whiteSpace=wrap;rounded=0;dashed=1;fontFamily=Helvetica;fontSize=12;fontColor=default;" vertex="1" parent="1">
                    <mxGeometry x="12" y="-12" width="60" height="30" as="geometry"/>
                </mxCell>
                <mxCell id="36" value="index=2" style="text;html=1;strokeColor=none;fillColor=none;align=center;verticalAlign=middle;whiteSpace=wrap;rounded=0;dashed=1;fontFamily=Helvetica;fontSize=12;fontColor=default;" vertex="1" parent="1">
                    <mxGeometry x="112" y="-15" width="60" height="30" as="geometry"/>
                </mxCell>
                <mxCell id="37" value="index=3" style="text;html=1;strokeColor=none;fillColor=none;align=center;verticalAlign=middle;whiteSpace=wrap;rounded=0;dashed=1;fontFamily=Helvetica;fontSize=12;fontColor=default;" vertex="1" parent="1">
                    <mxGeometry x="208" y="-18" width="60" height="30" as="geometry"/>
                </mxCell>
                <mxCell id="38" value="index=4" style="text;html=1;strokeColor=none;fillColor=none;align=center;verticalAlign=middle;whiteSpace=wrap;rounded=0;dashed=1;fontFamily=Helvetica;fontSize=12;fontColor=default;" vertex="1" parent="1">
                    <mxGeometry x="326" y="-15" width="60" height="30" as="geometry"/>
                </mxCell>
                <mxCell id="39" value="index=5" style="text;html=1;strokeColor=none;fillColor=none;align=center;verticalAlign=middle;whiteSpace=wrap;rounded=0;dashed=1;fontFamily=Helvetica;fontSize=12;fontColor=default;" vertex="1" parent="1">
                    <mxGeometry x="421" y="-16" width="60" height="30" as="geometry"/>
                </mxCell>
                <mxCell id="40" value="index=6" style="text;html=1;strokeColor=none;fillColor=none;align=center;verticalAlign=middle;whiteSpace=wrap;rounded=0;dashed=1;fontFamily=Helvetica;fontSize=12;fontColor=default;" vertex="1" parent="1">
                    <mxGeometry x="525" y="-18" width="60" height="30" as="geometry"/>
                </mxCell>
                <mxCell id="41" value="index=7" style="text;html=1;strokeColor=none;fillColor=none;align=center;verticalAlign=middle;whiteSpace=wrap;rounded=0;dashed=1;fontFamily=Helvetica;fontSize=12;fontColor=default;" vertex="1" parent="1">
                    <mxGeometry x="631" y="-18" width="60" height="30" as="geometry"/>
                </mxCell>
                <mxCell id="42" value="index=8" style="text;html=1;strokeColor=none;fillColor=none;align=center;verticalAlign=middle;whiteSpace=wrap;rounded=0;dashed=1;fontFamily=Helvetica;fontSize=12;fontColor=default;" vertex="1" parent="1">
                    <mxGeometry x="741" y="-17" width="60" height="30" as="geometry"/>
                </mxCell>
                <mxCell id="43" value="index=9" style="text;html=1;strokeColor=none;fillColor=none;align=center;verticalAlign=middle;whiteSpace=wrap;rounded=0;dashed=1;fontFamily=Helvetica;fontSize=12;fontColor=default;" vertex="1" parent="1">
                    <mxGeometry x="850" y="-21" width="60" height="30" as="geometry"/>
                </mxCell>
                <mxCell id="45" value="index=10" style="text;html=1;strokeColor=none;fillColor=none;align=center;verticalAlign=middle;whiteSpace=wrap;rounded=0;dashed=1;fontFamily=Helvetica;fontSize=12;fontColor=default;" vertex="1" parent="1">
                    <mxGeometry x="958" y="-17" width="60" height="30" as="geometry"/>
                </mxCell>
            </root>
        </mxGraphModel>
    </diagram>
</mxfile>